<svg width="54" height="38" viewBox="0 0 54 38" fill="none" xmlns="http://www.w3.org/2000/svg">
<g id="Group 172">
<path id="Vector" d="M23.9307 3.12354C23.9307 3.12354 26.8994 31.9997 0.0185625 31.9997C0.0185625 31.9997 -0.63034 22.9475 5.74514 19.2001C14.262 14.2036 11.5366 3.12354 23.9307 3.12354Z" fill="#FBF8F3"/>
<path id="Vector_2" d="M29.8682 3.12354C29.8682 3.12354 26.8994 31.9997 53.7803 31.9997C53.7803 31.9997 54.4292 22.9475 48.0537 19.2001C39.5368 14.2036 42.2622 3.12354 29.8682 3.12354Z" fill="#FBF8F3"/>
<g id="Group">
<path id="Vector_3" d="M15.479 11.4292L14.8463 11.7699C5.24258 10.2125 4.43144 3.38284 9.26577 0.754782C14.1001 -1.87328 19.3887 2.52304 15.479 11.4292Z" fill="#FBF8F3"/>
<path id="Vector_4" d="M38.3199 11.4292L38.9526 11.7699C48.5563 10.2125 49.3675 3.38284 44.5331 0.754782C39.6826 -1.87328 34.4102 2.52304 38.3199 11.4292Z" fill="#FBF8F3"/>
</g>
<path id="Vector_5" d="M26.5103 37.0122C21.2704 34.4977 20.7189 30.1501 20.7026 28.5603C20.7026 28.1871 20.9298 27.8465 21.2704 27.7167C22.2113 27.3436 24.304 26.646 26.9159 26.646C29.5277 26.646 31.6204 27.3436 32.5776 27.7329C32.9182 27.8789 33.1616 28.2034 33.1454 28.5765C33.1291 30.1825 32.5613 34.5139 27.3539 37.0122C27.0943 37.142 26.7699 37.142 26.5265 37.0122H26.5103Z" fill="#FBF8F3"/>
</g>
</svg>
